<svg width="99" height="99" viewBox="0 0 99 99" fill="none" xmlns="http://www.w3.org/2000/svg">
<g clip-path="url(#clip0_1126_8035)">
<path d="M49.4055 95.9151C69.7492 95.9151 86.241 79.4233 86.241 59.0796C86.241 38.736 69.7492 22.2441 49.4055 22.2441C29.0618 22.2441 12.57 38.736 12.57 59.0796C12.57 79.4233 29.0618 95.9151 49.4055 95.9151Z" stroke="#9728B8" stroke-width="7.5" stroke-miterlimit="10" stroke-linecap="round" stroke-linejoin="round"/>
<path d="M49.4055 84.3338C63.3541 84.3338 74.6617 73.0262 74.6617 59.0775C74.6617 45.1289 63.3541 33.8213 49.4055 33.8213C35.4568 33.8213 24.1492 45.1289 24.1492 59.0775C24.1492 73.0262 35.4568 84.3338 49.4055 84.3338Z" stroke="#9728B8" stroke-width="7.5" stroke-miterlimit="10" stroke-linecap="round" stroke-linejoin="round"/>
<path d="M63.568 10.1088L49.4045 22.2434L35.243 10.1088L39.4843 2.89453H59.3265L63.568 10.1088Z" stroke="#9728B8" stroke-width="7.5" stroke-miterlimit="10" stroke-linecap="round" stroke-linejoin="round"/>
<path d="M77.5916 12.0237L81.1827 6.82812" stroke="#9728B8" stroke-width="7.5" stroke-miterlimit="10" stroke-linecap="round" stroke-linejoin="round"/>
<path d="M88.4779 19.0891L93.4539 15.1992" stroke="#9728B8" stroke-width="7.5" stroke-miterlimit="10" stroke-linecap="round" stroke-linejoin="round"/>
<path d="M21.2181 12.0237L17.627 6.82812" stroke="#9728B8" stroke-width="7.5" stroke-miterlimit="10" stroke-linecap="round" stroke-linejoin="round"/>
<path d="M10.3313 19.0891L5.35535 15.1992" stroke="#9728B8" stroke-width="7.5" stroke-miterlimit="10" stroke-linecap="round" stroke-linejoin="round"/>
</g>
<defs>
<clipPath id="clip0_1126_8035">
<rect width="98.8095" height="98.8095" fill="white"/>
</clipPath>
</defs>
</svg>
