<svg width="100" height="100" viewBox="0 0 100 100" fill="none" xmlns="http://www.w3.org/2000/svg">
<path d="M28.1252 91.668C25.0002 91.668 22.3092 90.6089 20.0522 88.4909C17.7953 86.3728 16.6668 83.7513 16.6668 80.6263V22.5013C16.6668 19.8624 17.4828 17.5013 19.1147 15.418C20.7467 13.3346 22.8821 12.0152 25.521 11.4596L56.771 5.3138C59.3404 4.75825 61.6321 5.3138 63.646 6.98047C65.6599 8.64714 66.6668 10.7999 66.6668 13.4388V63.1263C66.6668 65.1402 66.0418 66.9284 64.7918 68.4909C63.5418 70.0534 61.9446 71.0082 60.0002 71.3555L27.1877 77.918C26.5627 78.0569 26.0418 78.3867 25.6252 78.9076C25.2085 79.4284 25.0002 80.0013 25.0002 80.6263C25.0002 81.3902 25.3127 82.0326 25.9377 82.5534C26.5627 83.0742 27.2918 83.3346 28.1252 83.3346H75.0002V20.8346C75.0002 19.6541 75.3995 18.6645 76.1981 17.8659C76.9967 17.0673 77.9863 16.668 79.1668 16.668C80.3474 16.668 81.337 17.0673 82.1356 17.8659C82.9342 18.6645 83.3335 19.6541 83.3335 20.8346V83.3346C83.3335 85.6263 82.5175 87.5881 80.8856 89.2201C79.2536 90.852 77.2918 91.668 75.0002 91.668H28.1252ZM37.5002 67.3971L58.3335 63.3346V13.543L37.5002 17.6055V67.3971ZM29.1668 69.0638V19.2721L27.6043 19.5846C26.8404 19.7235 26.2154 20.0534 25.7293 20.5742C25.2432 21.0951 25.0002 21.7374 25.0002 22.5013V70.1055C25.3474 69.9666 25.712 69.8451 26.0939 69.7409C26.4759 69.6367 26.8404 69.5499 27.1877 69.4805L29.1668 69.0638Z" fill="#9728B8"/>
</svg>
