<svg width="100" height="100" viewBox="0 0 100 100" fill="none" xmlns="http://www.w3.org/2000/svg">
<path d="M16.6665 83.3337C14.3749 83.3337 12.4131 82.5177 10.7811 80.8857C9.14916 79.2538 8.33319 77.292 8.33319 75.0003V25.0003C8.33319 22.7087 9.14916 20.7469 10.7811 19.1149C12.4131 17.483 14.3749 16.667 16.6665 16.667H83.3332C85.6249 16.667 87.5867 17.483 89.2186 19.1149C90.8505 20.7469 91.6665 22.7087 91.6665 25.0003V75.0003C91.6665 77.292 90.8505 79.2538 89.2186 80.8857C87.5867 82.5177 85.6249 83.3337 83.3332 83.3337H16.6665ZM16.6665 75.0003H83.3332V25.0003H16.6665V75.0003ZM24.9999 70.8337H58.3332C59.5137 70.8337 60.5033 70.4344 61.3019 69.6357C62.1005 68.8371 62.4999 67.8475 62.4999 66.667V33.3337C62.4999 32.1531 62.1005 31.1635 61.3019 30.3649C60.5033 29.5663 59.5137 29.167 58.3332 29.167H24.9999C23.8193 29.167 22.8297 29.5663 22.0311 30.3649C21.2325 31.1635 20.8332 32.1531 20.8332 33.3337V66.667C20.8332 67.8475 21.2325 68.8371 22.0311 69.6357C22.8297 70.4344 23.8193 70.8337 24.9999 70.8337ZM74.9999 70.8337C76.1804 70.8337 77.17 70.4344 77.9686 69.6357C78.7672 68.8371 79.1665 67.8475 79.1665 66.667C79.1665 65.4864 78.7672 64.4969 77.9686 63.6982C77.17 62.8996 76.1804 62.5003 74.9999 62.5003C73.8193 62.5003 72.8297 62.8996 72.0311 63.6982C71.2325 64.4969 70.8332 65.4864 70.8332 66.667C70.8332 67.8475 71.2325 68.8371 72.0311 69.6357C72.8297 70.4344 73.8193 70.8337 74.9999 70.8337ZM29.1665 62.5003V37.5003H54.1665V62.5003H29.1665ZM74.9999 54.167C76.1804 54.167 77.17 53.7677 77.9686 52.9691C78.7672 52.1705 79.1665 51.1809 79.1665 50.0003C79.1665 48.8198 78.7672 47.8302 77.9686 47.0316C77.17 46.233 76.1804 45.8337 74.9999 45.8337C73.8193 45.8337 72.8297 46.233 72.0311 47.0316C71.2325 47.8302 70.8332 48.8198 70.8332 50.0003C70.8332 51.1809 71.2325 52.1705 72.0311 52.9691C72.8297 53.7677 73.8193 54.167 74.9999 54.167ZM74.9999 37.5003C76.1804 37.5003 77.17 37.101 77.9686 36.3024C78.7672 35.5038 79.1665 34.5142 79.1665 33.3337C79.1665 32.1531 78.7672 31.1635 77.9686 30.3649C77.17 29.5663 76.1804 29.167 74.9999 29.167C73.8193 29.167 72.8297 29.5663 72.0311 30.3649C71.2325 31.1635 70.8332 32.1531 70.8332 33.3337C70.8332 34.5142 71.2325 35.5038 72.0311 36.3024C72.8297 37.101 73.8193 37.5003 74.9999 37.5003Z" fill="#9728B8"/>
</svg>
