<svg width="99" height="99" viewBox="0 0 99 99" fill="none" xmlns="http://www.w3.org/2000/svg">
<path d="M16.4681 16.4688L23.1584 29.8492C23.6387 30.8099 24.3249 31.5646 25.2169 32.1136C26.1089 32.6625 27.0696 32.937 28.0988 32.937C30.1574 32.937 31.7356 32.0621 32.8335 30.3124C33.9313 28.5626 34 26.7614 33.0393 24.9087L28.8193 16.4688H37.0535L43.7437 29.8492C44.224 30.8099 44.9102 31.5646 45.8022 32.1136C46.6942 32.6625 47.6549 32.937 48.6842 32.937C50.7427 32.937 52.3209 32.0621 53.4188 30.3124C54.5167 28.5626 54.5853 26.7614 53.6246 24.9087L49.4046 16.4688H57.6388L64.329 29.8492C64.8093 30.8099 65.4955 31.5646 66.3875 32.1136C67.2796 32.6625 68.2402 32.937 69.2695 32.937C71.328 32.937 72.9062 32.0621 74.0041 30.3124C75.102 28.5626 75.1706 26.7614 74.21 24.9087L69.99 16.4688H82.3412C84.6055 16.4688 86.544 17.275 88.1565 18.8875C89.769 20.5 90.5753 22.4385 90.5753 24.7029V74.1076C90.5753 76.372 89.769 78.3105 88.1565 79.923C86.544 81.5355 84.6055 82.3418 82.3412 82.3418H16.4681C14.2038 82.3418 12.2653 81.5355 10.6528 79.923C9.04027 78.3105 8.23401 76.372 8.23401 74.1076V24.7029C8.23401 22.4385 9.04027 20.5 10.6528 18.8875C12.2653 17.275 14.2038 16.4688 16.4681 16.4688ZM16.4681 41.1711V74.1076H82.3412V41.1711H16.4681Z" fill="#9728B8"/>
</svg>
