<svg width="99" height="99" viewBox="0 0 99 99" fill="none" xmlns="http://www.w3.org/2000/svg">
<path d="M24.7019 45.0812L20.5849 47.3456C19.6242 47.8946 18.5949 48.0318 17.4971 47.7573C16.3992 47.4829 15.5758 46.8653 15.0268 45.9047L6.79269 31.4949C6.24374 30.5343 6.10651 29.505 6.38098 28.4071C6.65545 27.3093 7.27301 26.4858 8.23366 25.9369L31.9068 12.3506H39.1116C39.7292 12.3506 40.2267 12.5393 40.6041 12.9167C40.9815 13.2941 41.1702 13.7916 41.1702 14.4091V16.4676C41.1702 18.732 41.9764 20.6705 43.5889 22.283C45.2015 23.8955 47.1399 24.7018 49.4043 24.7018C51.6687 24.7018 53.6071 23.8955 55.2197 22.283C56.8322 20.6705 57.6384 18.732 57.6384 16.4676V14.4091C57.6384 13.7916 57.8271 13.2941 58.2045 12.9167C58.5819 12.5393 59.0794 12.3506 59.697 12.3506H66.9018L90.5749 25.9369C91.5356 26.4858 92.1531 27.3093 92.4276 28.4071C92.7021 29.505 92.5649 30.5343 92.0159 31.4949L83.7818 45.9047C83.2328 46.8653 82.4266 47.4657 81.363 47.7059C80.2994 47.946 79.253 47.7916 78.2237 47.2427L74.1067 45.1842V82.3407C74.1067 83.5072 73.7121 84.485 72.923 85.2741C72.1339 86.0632 71.1561 86.4577 69.9896 86.4577H28.819C27.6525 86.4577 26.6747 86.0632 25.8856 85.2741C25.0965 84.485 24.7019 83.5072 24.7019 82.3407V45.0812ZM32.936 31.2891V78.2236H65.8726V31.2891L78.6355 38.2881L82.9584 31.0832L65.255 20.7906C64.2257 24.2901 62.2873 27.1892 59.4396 29.4879C56.592 31.7866 53.2469 32.9359 49.4043 32.9359C45.5617 32.9359 42.2166 31.7866 39.369 29.4879C36.5213 27.1892 34.5829 24.2901 33.5536 20.7906L15.8502 31.0832L20.1731 38.2881L32.936 31.2891Z" fill="#9728B8"/>
</svg>
