<svg width="99" height="99" viewBox="0 0 99 99" fill="none" xmlns="http://www.w3.org/2000/svg">
<path d="M56.2984 52.728C54.1026 49.6402 51.2035 47.4959 47.6011 46.2951C43.9986 45.0943 40.2761 44.4939 36.4335 44.4939C32.5909 44.4939 28.8684 45.0943 25.266 46.2951C21.6636 47.4959 18.7645 49.6402 16.5687 52.728H56.2984ZM36.4335 36.2598C39.59 36.2598 42.7978 36.6543 46.0572 37.4434C49.3165 38.2325 52.3357 39.4505 55.1147 41.0973C57.8937 42.7441 60.2782 44.8027 62.2681 47.2729C64.258 49.7431 65.5961 52.6594 66.2822 56.0217C66.5567 57.3254 66.2822 58.4747 65.4588 59.4697C64.6354 60.4647 63.5718 60.9621 62.2681 60.9621H10.599C9.29523 60.9621 8.23165 60.4647 7.40824 59.4697C6.58483 58.4747 6.31035 57.3254 6.58483 56.0217C7.271 52.6594 8.6262 49.7431 10.6504 47.2729C12.6746 44.8027 15.0763 42.7441 17.8553 41.0973C20.6343 39.4505 23.6363 38.2325 26.8614 37.4434C30.0864 36.6543 33.2771 36.2598 36.4335 36.2598ZM9.67262 77.4304C8.50612 77.4304 7.52832 77.0358 6.73921 76.2467C5.95011 75.4576 5.55556 74.4798 5.55556 73.3133C5.55556 72.1468 5.95011 71.169 6.73921 70.3799C7.52832 69.5908 8.50612 69.1963 9.67262 69.1963H63.1944C64.361 69.1963 65.3388 69.5908 66.1279 70.3799C66.917 71.169 67.3115 72.1468 67.3115 73.3133C67.3115 74.4798 66.917 75.4576 66.1279 76.2467C65.3388 77.0358 64.361 77.4304 63.1944 77.4304H9.67262ZM82.5446 93.8986H79.6627C78.4962 93.8986 77.5184 93.5041 76.7293 92.715C75.9402 91.9259 75.5456 90.9481 75.5456 89.7816C75.5456 88.6151 75.9402 87.6373 76.7293 86.8482C77.5184 86.0591 78.4962 85.6645 79.6627 85.6645H81.3095L87.0734 28.0256H51.6667C50.5002 28.0256 49.5224 27.6311 48.7333 26.842C47.9442 26.0529 47.5496 25.0751 47.5496 23.9086C47.5496 22.7421 47.9442 21.7643 48.7333 20.9752C49.5224 20.186 50.5002 19.7915 51.6667 19.7915H67.3115V7.44031C67.3115 6.2738 67.7061 5.296 68.4952 4.5069C69.2843 3.71779 70.2621 3.32324 71.4286 3.32324C72.5951 3.32324 73.5729 3.71779 74.362 4.5069C75.1511 5.296 75.5456 6.2738 75.5456 7.44031V19.7915H91.6022C92.8373 19.7915 93.8666 20.2375 94.69 21.1295C95.5134 22.0216 95.8565 23.0851 95.7193 24.3203L89.3378 87.9289C89.1319 89.6443 88.3772 91.0682 87.0734 92.2004C85.7697 93.3325 84.2601 93.8986 82.5446 93.8986ZM9.67262 93.8986C8.50612 93.8986 7.52832 93.5041 6.73921 92.715C5.95011 91.9259 5.55556 90.9481 5.55556 89.7816C5.55556 88.6151 5.95011 87.6373 6.73921 86.8482C7.52832 86.0591 8.50612 85.6645 9.67262 85.6645H63.1944C64.361 85.6645 65.3388 86.0591 66.1279 86.8482C66.917 87.6373 67.3115 88.6151 67.3115 89.7816C67.3115 90.9481 66.917 91.9259 66.1279 92.715C65.3388 93.5041 64.361 93.8986 63.1944 93.8986H9.67262Z" fill="#9728B8"/>
</svg>
