<svg width="100" height="100" viewBox="0 0 100 100" fill="none" xmlns="http://www.w3.org/2000/svg">
<path d="M70.8334 91.6663C69.6529 91.6663 68.6633 91.267 67.8647 90.4684C67.0661 89.6698 66.6668 88.6802 66.6668 87.4997C66.6668 86.3191 67.0661 85.3295 67.8647 84.5309C68.6633 83.7323 69.6529 83.333 70.8334 83.333H83.3334V74.9997H70.8334C69.6529 74.9997 68.6633 74.6004 67.8647 73.8018C67.0661 73.0031 66.6668 72.0136 66.6668 70.833C66.6668 69.6524 67.0661 68.6629 67.8647 67.8643C68.6633 67.0656 69.6529 66.6663 70.8334 66.6663H83.3334V58.333H70.8334C69.6529 58.333 68.6633 57.9337 67.8647 57.1351C67.0661 56.3365 66.6668 55.3469 66.6668 54.1663C66.6668 52.9858 67.0661 51.9962 67.8647 51.1976C68.6633 50.399 69.6529 49.9997 70.8334 49.9997H83.3334V41.6663H70.8334C69.6529 41.6663 68.6633 41.267 67.8647 40.4684C67.0661 39.6698 66.6668 38.6802 66.6668 37.4997C66.6668 36.3191 67.0661 35.3295 67.8647 34.5309C68.6633 33.7323 69.6529 33.333 70.8334 33.333H83.3334V24.9997H70.8334C69.6529 24.9997 68.6633 24.6004 67.8647 23.8018C67.0661 23.0031 66.6668 22.0136 66.6668 20.833C66.6668 19.6525 67.0661 18.6629 67.8647 17.8643C68.6633 17.0656 69.6529 16.6663 70.8334 16.6663H87.5001C89.7918 16.6663 91.7536 17.4823 93.3855 19.1143C95.0175 20.7462 95.8334 22.708 95.8334 24.9997V83.333C95.8334 85.6247 95.0175 87.5865 93.3855 89.2184C91.7536 90.8504 89.7918 91.6663 87.5001 91.6663H70.8334ZM26.6668 83.333H40.0001L52.2918 49.3747L39.3751 41.6663H27.2918L14.3751 49.3747L26.6668 83.333ZM18.8543 86.1455L6.5626 52.2913C5.86816 50.4163 5.85079 48.5413 6.51052 46.6663C7.17024 44.7913 8.36816 43.333 10.1043 42.2913L25.0001 33.333V12.4997C25.0001 11.3191 25.3994 10.3295 26.198 9.53092C26.9966 8.73231 27.9862 8.33301 29.1668 8.33301H37.5001C38.6807 8.33301 39.6702 8.73231 40.4688 9.53092C41.2675 10.3295 41.6668 11.3191 41.6668 12.4997V33.333L56.5626 42.2913C58.2987 43.333 59.4966 44.7913 60.1564 46.6663C60.8161 48.5413 60.7987 50.4163 60.1043 52.2913L47.8126 86.1455C47.257 87.8122 46.2675 89.149 44.8438 90.1559C43.4202 91.1629 41.8057 91.6663 40.0001 91.6663H26.6668C24.8612 91.6663 23.2466 91.1629 21.823 90.1559C20.3994 89.149 19.4098 87.8122 18.8543 86.1455Z" fill="#9728B8"/>
</svg>
