<svg width="100" height="100" viewBox="0 0 100 100" fill="none" xmlns="http://www.w3.org/2000/svg">
<path d="M33.3333 91.6674C31.0417 91.6674 29.0799 90.8515 27.4479 89.2195C25.816 87.5876 25 85.6258 25 83.3341V65.4174C25 60.2785 25.7292 55.3306 27.1875 50.5737C28.6458 45.8167 30.9375 41.0771 34.0625 36.3549C31.4236 35.7299 29.2535 34.3063 27.5521 32.0841C25.8507 29.8619 25 27.3619 25 24.5841V20.2091C25 16.8758 26.441 14.0806 29.3229 11.8237C32.2049 9.56673 35.2083 8.61187 38.3333 8.95909L75.4167 12.6049C76.5972 12.7438 77.5174 13.2126 78.1771 14.0112C78.8368 14.8098 79.1667 15.7299 79.1667 16.7716V29.1674C79.1667 30.2091 78.8021 31.1292 78.0729 31.9278C77.3437 32.7265 76.4583 33.1952 75.4167 33.3341L71.6667 33.7508C72.4306 36.3202 73.3333 38.6813 74.375 40.8341C75.4167 42.9869 76.6667 44.8271 78.125 46.3549C78.8889 47.1883 79.3924 48.1605 79.6354 49.2716C79.8785 50.3827 79.7222 51.4244 79.1667 52.3966C78.6111 53.3688 77.7951 54.0285 76.7187 54.3758C75.6424 54.723 74.6875 54.5146 73.8542 53.7508C71.2153 51.4591 69.1146 48.664 67.5521 45.3653C65.9896 42.0667 64.7222 38.4383 63.75 34.4799L59.1667 34.8966C59.7222 38.3688 60.7812 41.8758 62.3437 45.4174C63.9062 48.9591 65.4861 52.1535 67.0833 55.0008C68.3333 57.223 69.2708 59.5494 69.8958 61.9799C70.5208 64.4105 70.8333 66.8758 70.8333 69.3758V83.3341C70.8333 85.6258 70.0174 87.5876 68.3854 89.2195C66.7535 90.8515 64.7917 91.6674 62.5 91.6674H33.3333ZM33.3333 21.2508V24.5841C33.3333 25.8341 33.7847 26.841 34.6875 27.6049C35.5903 28.3688 36.6667 28.6813 37.9167 28.5424L70.8333 25.4174V20.4174L37.9167 17.2924C36.6667 17.1535 35.5903 17.466 34.6875 18.2299C33.7847 18.9938 33.3333 20.0008 33.3333 21.2508ZM33.3333 83.3341H62.5V69.3758C62.5 67.5702 62.2743 65.7994 61.8229 64.0633C61.3715 62.3271 60.6944 60.6605 59.7917 59.0633C57.6389 55.3133 55.7639 51.4417 54.1667 47.4487C52.5694 43.4556 51.4583 39.5494 50.8333 35.7299L44.5833 36.2508L41.875 39.7924C39.0972 43.473 36.9792 47.5181 35.5208 51.9278C34.0625 56.3376 33.3333 60.8341 33.3333 65.4174V83.3341Z" fill="#9728B8"/>
</svg>
